<svg width="80" height="79" viewBox="0 0 80 79" fill="none" xmlns="http://www.w3.org/2000/svg">
<path d="M74.1846 39.5C74.1846 30.3335 70.5432 21.5424 64.0615 15.0606C57.5797 8.57891 48.7886 4.93751 39.6221 4.93751C30.919 4.92948 22.5332 8.20511 16.1398 14.1101C9.74641 20.0151 5.81611 28.1147 5.13398 36.7911C4.45184 45.4674 7.06809 54.0817 12.4601 60.9133C17.8522 67.7448 25.623 72.2907 34.2204 73.6428V49.4886H25.4514V39.5H34.2254V31.8864C34.2254 23.226 39.3851 18.4366 47.2801 18.4366C51.0623 18.4366 55.0172 19.1131 55.0172 19.1131V27.6204H50.6574C46.3618 27.6204 45.0286 30.2866 45.0286 33.0171V39.5H54.6123L53.0817 49.4886H45.0237V73.6428C53.1533 72.3555 60.5568 68.2095 65.9024 61.9507C71.2479 55.6918 74.1848 47.7309 74.1846 39.5Z" fill="#FFA500"/>
<path d="M53.0767 49.4885L54.6074 39.5H45.0237V33.017C45.0237 30.2866 46.3568 27.6203 50.6524 27.6203H55.0122V19.1081C55.0122 19.1081 51.0573 18.4316 47.2752 18.4316C39.3752 18.4316 34.2204 23.221 34.2204 31.8814V39.5H25.4514V49.4885H34.2254V73.6428C37.8044 74.206 41.4495 74.206 45.0286 73.6428V49.4885H53.0767Z" fill="white"/>
</svg>
