<svg width="79" height="79" viewBox="0 0 79 79" fill="none" xmlns="http://www.w3.org/2000/svg">
<path d="M59.25 4.9375H19.75C11.5693 4.9375 4.9375 11.5693 4.9375 19.75V59.25C4.9375 67.4307 11.5693 74.0625 19.75 74.0625H59.25C67.4307 74.0625 74.0625 67.4307 74.0625 59.25V19.75C74.0625 11.5693 67.4307 4.9375 59.25 4.9375Z" fill="url(#paint0_radial_2_95)"/>
<path d="M59.25 4.9375H19.75C11.5693 4.9375 4.9375 11.5693 4.9375 19.75V59.25C4.9375 67.4307 11.5693 74.0625 19.75 74.0625H59.25C67.4307 74.0625 74.0625 67.4307 74.0625 59.25V19.75C74.0625 11.5693 67.4307 4.9375 59.25 4.9375Z" fill="url(#paint1_radial_2_95)"/>
<path d="M59.25 4.9375H19.75C11.5693 4.9375 4.9375 11.5693 4.9375 19.75V59.25C4.9375 67.4307 11.5693 74.0625 19.75 74.0625H59.25C67.4307 74.0625 74.0625 67.4307 74.0625 59.25V19.75C74.0625 11.5693 67.4307 4.9375 59.25 4.9375Z" fill="#FFA500"/>
<path d="M56.7812 25.9219C56.7812 27.967 55.1232 29.625 53.0781 29.625C51.033 29.625 49.375 27.967 49.375 25.9219C49.375 23.8767 51.033 22.2188 53.0781 22.2188C55.1232 22.2188 56.7812 23.8767 56.7812 25.9219Z" fill="white"/>
<path fill-rule="evenodd" clip-rule="evenodd" d="M39.5 51.8438C46.3172 51.8438 51.8438 46.3172 51.8438 39.5C51.8438 32.6828 46.3172 27.1562 39.5 27.1562C32.6828 27.1562 27.1562 32.6828 27.1562 39.5C27.1562 46.3172 32.6828 51.8438 39.5 51.8438ZM39.5 46.9062C43.5905 46.9062 46.9062 43.5905 46.9062 39.5C46.9062 35.4095 43.5905 32.0938 39.5 32.0938C35.4095 32.0938 32.0938 35.4095 32.0938 39.5C32.0938 43.5905 35.4095 46.9062 39.5 46.9062Z" fill="white"/>
<path fill-rule="evenodd" clip-rule="evenodd" d="M14.8125 38.5125C14.8125 30.2168 14.8125 26.0688 16.427 22.9003C17.8471 20.1131 20.1131 17.8471 22.9003 16.427C26.0688 14.8125 30.2168 14.8125 38.5125 14.8125H40.4875C48.7832 14.8125 52.9312 14.8125 56.0996 16.427C58.8868 17.8471 61.1529 20.1131 62.5729 22.9003C64.1875 26.0688 64.1875 30.2168 64.1875 38.5125V40.4875C64.1875 48.7832 64.1875 52.9312 62.5729 56.0996C61.1529 58.8868 58.8868 61.1529 56.0996 62.5729C52.9312 64.1875 48.7832 64.1875 40.4875 64.1875H38.5125C30.2168 64.1875 26.0688 64.1875 22.9003 62.5729C20.1131 61.1529 17.8471 58.8868 16.427 56.0996C14.8125 52.9312 14.8125 48.7832 14.8125 40.4875V38.5125ZM38.5125 19.75H40.4875C44.717 19.75 47.5918 19.7539 49.8142 19.9354C51.979 20.1123 53.086 20.4328 53.8582 20.8263C55.7162 21.7731 57.2269 23.2837 58.1736 25.1418C58.5671 25.914 58.8878 27.021 59.0646 29.1858C59.2461 31.4082 59.25 34.283 59.25 38.5125V40.4875C59.25 44.717 59.2461 47.5918 59.0646 49.8142C58.8878 51.979 58.5671 53.086 58.1736 53.8582C57.2269 55.7162 55.7162 57.2269 53.8582 58.1736C53.086 58.5671 51.979 58.8878 49.8142 59.0646C47.5918 59.2461 44.717 59.25 40.4875 59.25H38.5125C34.283 59.25 31.4082 59.2461 29.1858 59.0646C27.021 58.8878 25.914 58.5671 25.1418 58.1736C23.2837 57.2269 21.7731 55.7162 20.8263 53.8582C20.4328 53.086 20.1123 51.979 19.9354 49.8142C19.7539 47.5918 19.75 44.717 19.75 40.4875V38.5125C19.75 34.283 19.7539 31.4082 19.9354 29.1858C20.1123 27.021 20.4328 25.914 20.8263 25.1418C21.7731 23.2837 23.2837 21.7731 25.1418 20.8263C25.914 20.4328 27.021 20.1123 29.1858 19.9354C31.4082 19.7539 34.283 19.75 38.5125 19.75Z" fill="white"/>
<defs>
<radialGradient id="paint0_radial_2_95" cx="0" cy="0" r="1" gradientUnits="userSpaceOnUse" gradientTransform="translate(29.625 56.7813) rotate(-55.3758) scale(63.0015)">
<stop stop-color="#B13589"/>
<stop offset="0.79309" stop-color="#C62F94"/>
<stop offset="1" stop-color="#8A3AC8"/>
</radialGradient>
<radialGradient id="paint1_radial_2_95" cx="0" cy="0" r="1" gradientUnits="userSpaceOnUse" gradientTransform="translate(27.1563 76.5313) rotate(-65.1363) scale(55.7794)">
<stop stop-color="#E0E8B7"/>
<stop offset="0.444662" stop-color="#FB8A2E"/>
<stop offset="0.71474" stop-color="#E2425C"/>
<stop offset="1" stop-color="#E2425C" stop-opacity="0"/>
</radialGradient>
</defs>
</svg>
