<svg width="79" height="79" viewBox="0 0 79 79" fill="none" xmlns="http://www.w3.org/2000/svg">
<g clip-path="url(#clip0_2_105)">
<path fill-rule="evenodd" clip-rule="evenodd" d="M79 14.3765C76.0973 15.6984 72.972 16.5923 69.6936 16.9918C73.0415 14.9376 75.6104 11.6804 76.8206 7.80031C73.686 9.70232 70.2222 11.086 66.5219 11.8278C63.5728 8.59913 59.3578 6.58301 54.693 6.58301C45.7483 6.58301 38.4914 14.0246 38.4914 23.2018C38.4914 24.5047 38.6306 25.7695 38.9088 26.9868C25.4384 26.2926 13.4982 19.6831 5.49944 9.61671C4.10371 12.0798 3.30613 14.9376 3.30613 17.9808C3.30613 23.7439 6.16717 28.8318 10.5166 31.8132C7.8643 31.7323 5.36032 30.9763 3.17167 29.74V29.9444C3.17167 37.9995 8.75922 44.7183 16.1784 46.2399C14.8197 46.6298 13.3869 46.8248 11.9077 46.8248C10.8644 46.8248 9.84428 46.7249 8.8566 46.53C10.9201 53.13 16.9017 57.9373 23.9963 58.0657C18.4505 62.5259 11.4579 65.1839 3.86722 65.1839C2.55959 65.1839 1.26589 65.1079 0 64.9557C7.17339 69.6632 15.6961 72.4163 24.8449 72.4163C54.6606 72.4163 70.9595 47.0958 70.9595 25.1324C70.9595 24.4096 70.9456 23.6868 70.9177 22.9783C74.0848 20.6341 76.8345 17.7098 79 14.3765Z" fill="#FFA500"/>
</g>
<defs>
<clipPath id="clip0_2_105">
<rect width="79" height="79" fill="white"/>
</clipPath>
</defs>
</svg>
